<svg width="24" height="24" viewBox="0 0 24 24" fill="none" xmlns="http://www.w3.org/2000/svg">
<g clip-path="url(#clip0_7_1708)">
<mask id="mask0_7_1708" style="mask-type:alpha" maskUnits="userSpaceOnUse" x="0" y="0" width="25" height="24">
<rect x="0.0761719" width="24" height="24" fill="#D9D9D9"/>
</mask>
<g mask="url(#mask0_7_1708)">
<path d="M2.70117 18.175L1.07617 17L6.07617 9L9.07617 12.5L13.0762 6L15.8012 10.075C15.4178 10.0917 15.0553 10.1375 14.7137 10.2125C14.372 10.2875 14.0345 10.3917 13.7012 10.525L13.1512 9.7L9.35117 15.875L6.32617 12.35L2.70117 18.175ZM21.6512 23L18.5262 19.875C18.1928 20.1083 17.822 20.2833 17.4137 20.4C17.0053 20.5167 16.5845 20.575 16.1512 20.575C14.9012 20.575 13.8387 20.1375 12.9637 19.2625C12.0887 18.3875 11.6512 17.325 11.6512 16.075C11.6512 14.825 12.0887 13.7625 12.9637 12.8875C13.8387 12.0125 14.9012 11.575 16.1512 11.575C17.4012 11.575 18.4637 12.0125 19.3387 12.8875C20.2137 13.7625 20.6512 14.825 20.6512 16.075C20.6512 16.5083 20.5928 16.9292 20.4762 17.3375C20.3595 17.7458 20.1845 18.125 19.9512 18.475L23.0762 21.575L21.6512 23ZM16.1512 18.575C16.8512 18.575 17.4428 18.3333 17.9262 17.85C18.4095 17.3667 18.6512 16.775 18.6512 16.075C18.6512 15.375 18.4095 14.7833 17.9262 14.3C17.4428 13.8167 16.8512 13.575 16.1512 13.575C15.4512 13.575 14.8595 13.8167 14.3762 14.3C13.8928 14.7833 13.6512 15.375 13.6512 16.075C13.6512 16.775 13.8928 17.3667 14.3762 17.85C14.8595 18.3333 15.4512 18.575 16.1512 18.575ZM18.3762 10.575C18.0595 10.4417 17.7303 10.3333 17.3887 10.25C17.047 10.1667 16.6928 10.1167 16.3262 10.1L21.4512 2L23.0762 3.175L18.3762 10.575Z" fill="#ABACAD"/>
</g>
</g>
<defs>
<clipPath id="clip0_7_1708">
<rect width="24" height="24" fill="white"/>
</clipPath>
</defs>
</svg>
