<svg width="24" height="24" viewBox="0 0 24 24" fill="none" xmlns="http://www.w3.org/2000/svg">
<g clip-path="url(#clip0_7_1672)">
<mask id="mask0_7_1672" style="mask-type:alpha" maskUnits="userSpaceOnUse" x="0" y="0" width="25" height="24">
<rect x="0.0761719" width="24" height="24" fill="#D9D9D9"/>
</mask>
<g mask="url(#mask0_7_1672)">
<path d="M1.07617 20V17.2C1.07617 16.6333 1.22201 16.1125 1.51367 15.6375C1.80534 15.1625 2.19284 14.8 2.67617 14.55C3.70951 14.0333 4.75951 13.6458 5.82617 13.3875C6.89284 13.1292 7.97617 13 9.07617 13C10.1762 13 11.2595 13.1292 12.3262 13.3875C13.3928 13.6458 14.4428 14.0333 15.4762 14.55C15.9595 14.8 16.347 15.1625 16.6387 15.6375C16.9303 16.1125 17.0762 16.6333 17.0762 17.2V20H1.07617ZM19.0762 20V17C19.0762 16.2667 18.872 15.5625 18.4637 14.8875C18.0553 14.2125 17.4762 13.6333 16.7262 13.15C17.5762 13.25 18.3762 13.4208 19.1262 13.6625C19.8762 13.9042 20.5762 14.2 21.2262 14.55C21.8262 14.8833 22.2845 15.2542 22.6012 15.6625C22.9178 16.0708 23.0762 16.5167 23.0762 17V20H19.0762ZM9.07617 12C7.97617 12 7.03451 11.6083 6.25117 10.825C5.46784 10.0417 5.07617 9.1 5.07617 8C5.07617 6.9 5.46784 5.95833 6.25117 5.175C7.03451 4.39167 7.97617 4 9.07617 4C10.1762 4 11.1178 4.39167 11.9012 5.175C12.6845 5.95833 13.0762 6.9 13.0762 8C13.0762 9.1 12.6845 10.0417 11.9012 10.825C11.1178 11.6083 10.1762 12 9.07617 12ZM19.0762 8C19.0762 9.1 18.6845 10.0417 17.9012 10.825C17.1178 11.6083 16.1762 12 15.0762 12C14.8928 12 14.6595 11.9792 14.3762 11.9375C14.0928 11.8958 13.8595 11.85 13.6762 11.8C14.1262 11.2667 14.472 10.675 14.7137 10.025C14.9553 9.375 15.0762 8.7 15.0762 8C15.0762 7.3 14.9553 6.625 14.7137 5.975C14.472 5.325 14.1262 4.73333 13.6762 4.2C13.9095 4.11667 14.1428 4.0625 14.3762 4.0375C14.6095 4.0125 14.8428 4 15.0762 4C16.1762 4 17.1178 4.39167 17.9012 5.175C18.6845 5.95833 19.0762 6.9 19.0762 8ZM3.07617 18H15.0762V17.2C15.0762 17.0167 15.0303 16.85 14.9387 16.7C14.847 16.55 14.7262 16.4333 14.5762 16.35C13.6762 15.9 12.7678 15.5625 11.8512 15.3375C10.9345 15.1125 10.0095 15 9.07617 15C8.14284 15 7.21784 15.1125 6.30117 15.3375C5.38451 15.5625 4.47617 15.9 3.57617 16.35C3.42617 16.4333 3.30534 16.55 3.21367 16.7C3.12201 16.85 3.07617 17.0167 3.07617 17.2V18ZM9.07617 10C9.62617 10 10.097 9.80417 10.4887 9.4125C10.8803 9.02083 11.0762 8.55 11.0762 8C11.0762 7.45 10.8803 6.97917 10.4887 6.5875C10.097 6.19583 9.62617 6 9.07617 6C8.52617 6 8.05534 6.19583 7.66367 6.5875C7.27201 6.97917 7.07617 7.45 7.07617 8C7.07617 8.55 7.27201 9.02083 7.66367 9.4125C8.05534 9.80417 8.52617 10 9.07617 10Z" fill="#ABACAD"/>
</g>
</g>
<defs>
<clipPath id="clip0_7_1672">
<rect width="24" height="24" fill="white"/>
</clipPath>
</defs>
</svg>
