<svg width="24" height="24" viewBox="0 0 24 24" fill="none" xmlns="http://www.w3.org/2000/svg">
<g clip-path="url(#clip0_7_1690)">
<mask id="mask0_7_1690" style="mask-type:alpha" maskUnits="userSpaceOnUse" x="0" y="0" width="25" height="24">
<rect x="0.0761719" width="24" height="24" fill="#D9D9D9"/>
</mask>
<g mask="url(#mask0_7_1690)">
<path d="M12.0762 22L11.8262 19H11.5762C9.20951 19 7.20117 18.175 5.55117 16.525C3.90117 14.875 3.07617 12.8667 3.07617 10.5C3.07617 8.13333 3.90117 6.125 5.55117 4.475C7.20117 2.825 9.20951 2 11.5762 2C12.7595 2 13.8637 2.22083 14.8887 2.6625C15.9137 3.10417 16.8137 3.7125 17.5887 4.4875C18.3637 5.2625 18.972 6.1625 19.4137 7.1875C19.8553 8.2125 20.0762 9.31667 20.0762 10.5C20.0762 11.75 19.872 12.95 19.4637 14.1C19.0553 15.25 18.497 16.3167 17.7887 17.3C17.0803 18.2833 16.2387 19.175 15.2637 19.975C14.2887 20.775 13.2262 21.45 12.0762 22ZM11.5512 15.975C11.8345 15.975 12.0762 15.875 12.2762 15.675C12.4762 15.475 12.5762 15.2333 12.5762 14.95C12.5762 14.6667 12.4762 14.425 12.2762 14.225C12.0762 14.025 11.8345 13.925 11.5512 13.925C11.2678 13.925 11.0262 14.025 10.8262 14.225C10.6262 14.425 10.5262 14.6667 10.5262 14.95C10.5262 15.2333 10.6262 15.475 10.8262 15.675C11.0262 15.875 11.2678 15.975 11.5512 15.975ZM10.8262 12.8H12.3262C12.3262 12.3 12.3762 11.95 12.4762 11.75C12.5762 11.55 12.8928 11.1833 13.4262 10.65C13.7262 10.35 13.9762 10.025 14.1762 9.675C14.3762 9.325 14.4762 8.95 14.4762 8.55C14.4762 7.7 14.1887 7.0625 13.6137 6.6375C13.0387 6.2125 12.3595 6 11.5762 6C10.8428 6 10.2262 6.20417 9.72617 6.6125C9.22617 7.02083 8.87617 7.51667 8.67617 8.1L10.0762 8.65C10.1595 8.36667 10.3178 8.0875 10.5512 7.8125C10.7845 7.5375 11.1262 7.4 11.5762 7.4C12.0262 7.4 12.3637 7.525 12.5887 7.775C12.8137 8.025 12.9262 8.3 12.9262 8.6C12.9262 8.88333 12.8428 9.1375 12.6762 9.3625C12.5095 9.5875 12.3095 9.81667 12.0762 10.05C11.4928 10.55 11.1387 10.9458 11.0137 11.2375C10.8887 11.5292 10.8262 12.05 10.8262 12.8Z" fill="#ABACAD"/>
</g>
</g>
<defs>
<clipPath id="clip0_7_1690">
<rect width="24" height="24" fill="white"/>
</clipPath>
</defs>
</svg>
