<svg width="24" height="24" viewBox="0 0 24 24" fill="none" xmlns="http://www.w3.org/2000/svg">
<g clip-path="url(#clip0_7_1702)">
<mask id="mask0_7_1702" style="mask-type:alpha" maskUnits="userSpaceOnUse" x="0" y="0" width="25" height="24">
<rect x="0.0761719" width="24" height="24" fill="#D9D9D9"/>
</mask>
<g mask="url(#mask0_7_1702)">
<path d="M6.02598 21C5.70931 21 5.45931 20.8708 5.27598 20.6125C5.09264 20.3542 5.04264 20.075 5.12598 19.775L9.57598 3.7C9.64264 3.48333 9.75931 3.3125 9.92598 3.1875C10.0926 3.0625 10.2843 3 10.501 3C10.8343 3 11.0926 3.12917 11.276 3.3875C11.4593 3.64583 11.5093 3.925 11.426 4.225L10.926 6H16.551L17.176 3.7C17.2426 3.48333 17.3635 3.3125 17.5385 3.1875C17.7135 3.0625 17.9093 3 18.126 3C18.4426 3 18.6926 3.12917 18.876 3.3875C19.0593 3.64583 19.1093 3.925 19.026 4.225L14.576 20.3C14.5093 20.5167 14.3926 20.6875 14.226 20.8125C14.0593 20.9375 13.8676 21 13.651 21C13.3176 21 13.0593 20.8708 12.876 20.6125C12.6926 20.3542 12.6426 20.075 12.726 19.775L13.226 18H7.60098L6.97598 20.3C6.90931 20.5167 6.78848 20.6875 6.61348 20.8125C6.43848 20.9375 6.24264 21 6.02598 21ZM9.55098 11H15.151L15.976 8H10.376L9.55098 11ZM8.17598 16H13.776L14.601 13H9.00098L8.17598 16Z" fill="#ABACAD"/>
</g>
</g>
<defs>
<clipPath id="clip0_7_1702">
<rect width="24" height="24" fill="white"/>
</clipPath>
</defs>
</svg>
