<svg width="24" height="24" viewBox="0 0 24 24" fill="none" xmlns="http://www.w3.org/2000/svg">
<g clip-path="url(#clip0_7_1726)">
<mask id="mask0_7_1726" style="mask-type:alpha" maskUnits="userSpaceOnUse" x="0" y="0" width="25" height="24">
<rect x="0.0761719" width="24" height="24" fill="#D9D9D9"/>
</mask>
<g mask="url(#mask0_7_1726)">
<path d="M12.0762 12C11.7928 12 11.5553 11.9042 11.3637 11.7125C11.172 11.5208 11.0762 11.2833 11.0762 11V3C11.0762 2.71667 11.172 2.47917 11.3637 2.2875C11.5553 2.09583 11.7928 2 12.0762 2C12.3595 2 12.597 2.09583 12.7887 2.2875C12.9803 2.47917 13.0762 2.71667 13.0762 3V11C13.0762 11.2833 12.9803 11.5208 12.7887 11.7125C12.597 11.9042 12.3595 12 12.0762 12ZM12.0762 21C10.8262 21 9.65534 20.7625 8.56367 20.2875C7.47201 19.8125 6.52201 19.1708 5.71367 18.3625C4.90534 17.5542 4.26367 16.6042 3.78867 15.5125C3.31367 14.4208 3.07617 13.25 3.07617 12C3.07617 10.9833 3.24284 9.99583 3.57617 9.0375C3.90951 8.07917 4.39284 7.2 5.02617 6.4C5.20951 6.16667 5.44284 6.05417 5.72617 6.0625C6.00951 6.07083 6.25951 6.18333 6.47617 6.4C6.65951 6.58333 6.74284 6.80833 6.72617 7.075C6.70951 7.34167 6.61784 7.59167 6.45117 7.825C6.00117 8.425 5.65951 9.08333 5.42617 9.8C5.19284 10.5167 5.07617 11.25 5.07617 12C5.07617 13.95 5.75534 15.6042 7.11367 16.9625C8.472 18.3208 10.1262 19 12.0762 19C14.0262 19 15.6803 18.3208 17.0387 16.9625C18.397 15.6042 19.0762 13.95 19.0762 12C19.0762 11.2333 18.9637 10.4875 18.7387 9.7625C18.5137 9.0375 18.1595 8.375 17.6762 7.775C17.5095 7.55833 17.4178 7.32083 17.4012 7.0625C17.3845 6.80417 17.4678 6.58333 17.6512 6.4C17.8512 6.2 18.0928 6.09583 18.3762 6.0875C18.6595 6.07917 18.8928 6.18333 19.0762 6.4C19.7262 7.2 20.222 8.075 20.5637 9.025C20.9053 9.975 21.0762 10.9667 21.0762 12C21.0762 13.25 20.8387 14.4208 20.3637 15.5125C19.8887 16.6042 19.247 17.5542 18.4387 18.3625C17.6303 19.1708 16.6803 19.8125 15.5887 20.2875C14.497 20.7625 13.3262 21 12.0762 21Z" fill="#ABACAD"/>
</g>
</g>
<defs>
<clipPath id="clip0_7_1726">
<rect width="24" height="24" fill="white"/>
</clipPath>
</defs>
</svg>
