<svg width="24" height="24" viewBox="0 0 24 24" fill="none" xmlns="http://www.w3.org/2000/svg">
<g clip-path="url(#clip0_7_1678)">
<mask id="mask0_7_1678" style="mask-type:alpha" maskUnits="userSpaceOnUse" x="0" y="0" width="25" height="24">
<rect x="0.0761719" width="24" height="24" fill="#D9D9D9"/>
</mask>
<g mask="url(#mask0_7_1678)">
<path d="M11.1762 19H12.9262V17.75C13.7595 17.6 14.4762 17.275 15.0762 16.775C15.6762 16.275 15.9762 15.5333 15.9762 14.55C15.9762 13.85 15.7762 13.2083 15.3762 12.625C14.9762 12.0417 14.1762 11.5333 12.9762 11.1C11.9762 10.7667 11.2845 10.475 10.9012 10.225C10.5178 9.975 10.3262 9.63333 10.3262 9.2C10.3262 8.76667 10.4803 8.425 10.7887 8.175C11.097 7.925 11.5428 7.8 12.1262 7.8C12.6595 7.8 13.0762 7.92917 13.3762 8.1875C13.6762 8.44583 13.8928 8.76667 14.0262 9.15L15.6262 8.5C15.4428 7.91667 15.1053 7.40833 14.6137 6.975C14.122 6.54167 13.5762 6.3 12.9762 6.25V5H11.2262V6.25C10.3928 6.43333 9.74284 6.8 9.27617 7.35C8.80951 7.9 8.57617 8.51667 8.57617 9.2C8.57617 9.98333 8.80534 10.6167 9.26367 11.1C9.72201 11.5833 10.4428 12 11.4262 12.35C12.4762 12.7333 13.2053 13.075 13.6137 13.375C14.022 13.675 14.2262 14.0667 14.2262 14.55C14.2262 15.1 14.0303 15.5042 13.6387 15.7625C13.247 16.0208 12.7762 16.15 12.2262 16.15C11.6762 16.15 11.1887 15.9792 10.7637 15.6375C10.3387 15.2958 10.0262 14.7833 9.82617 14.1L8.17617 14.75C8.4095 15.55 8.77201 16.1958 9.26367 16.6875C9.75534 17.1792 10.3928 17.5167 11.1762 17.7V19ZM12.0762 22C10.6928 22 9.39284 21.7375 8.17617 21.2125C6.95951 20.6875 5.90117 19.975 5.00117 19.075C4.10117 18.175 3.38867 17.1167 2.86367 15.9C2.33867 14.6833 2.07617 13.3833 2.07617 12C2.07617 10.6167 2.33867 9.31667 2.86367 8.1C3.38867 6.88333 4.10117 5.825 5.00117 4.925C5.90117 4.025 6.95951 3.3125 8.17617 2.7875C9.39284 2.2625 10.6928 2 12.0762 2C13.4595 2 14.7595 2.2625 15.9762 2.7875C17.1928 3.3125 18.2512 4.025 19.1512 4.925C20.0512 5.825 20.7637 6.88333 21.2887 8.1C21.8137 9.31667 22.0762 10.6167 22.0762 12C22.0762 13.3833 21.8137 14.6833 21.2887 15.9C20.7637 17.1167 20.0512 18.175 19.1512 19.075C18.2512 19.975 17.1928 20.6875 15.9762 21.2125C14.7595 21.7375 13.4595 22 12.0762 22Z" fill="#ABACAD"/>
</g>
</g>
<defs>
<clipPath id="clip0_7_1678">
<rect width="24" height="24" fill="white"/>
</clipPath>
</defs>
</svg>
