<svg width="24" height="25" viewBox="0 0 24 25" fill="none" xmlns="http://www.w3.org/2000/svg">
<g clip-path="url(#clip0_7_1696)">
<mask id="mask0_7_1696" style="mask-type:alpha" maskUnits="userSpaceOnUse" x="0" y="0" width="25" height="25">
<rect x="0.0761719" y="0.5" width="24" height="24" fill="#D9D9D9"/>
</mask>
<g mask="url(#mask0_7_1696)">
<path d="M9.75117 14.2L10.6262 11.35L8.32617 9.5H11.1762L12.0762 6.7L12.9762 9.5H15.8262L13.5012 11.35L14.3762 14.2L12.0762 12.425L9.75117 14.2ZM6.07617 23.5V15.775C5.44284 15.075 4.95117 14.275 4.60117 13.375C4.25117 12.475 4.07617 11.5167 4.07617 10.5C4.07617 8.26667 4.85117 6.375 6.40117 4.825C7.95117 3.275 9.84284 2.5 12.0762 2.5C14.3095 2.5 16.2012 3.275 17.7512 4.825C19.3012 6.375 20.0762 8.26667 20.0762 10.5C20.0762 11.5167 19.9012 12.475 19.5512 13.375C19.2012 14.275 18.7095 15.075 18.0762 15.775V23.5L12.0762 21.5L6.07617 23.5ZM12.0762 16.5C13.7428 16.5 15.1595 15.9167 16.3262 14.75C17.4928 13.5833 18.0762 12.1667 18.0762 10.5C18.0762 8.83333 17.4928 7.41667 16.3262 6.25C15.1595 5.08333 13.7428 4.5 12.0762 4.5C10.4095 4.5 8.99284 5.08333 7.82617 6.25C6.65951 7.41667 6.07617 8.83333 6.07617 10.5C6.07617 12.1667 6.65951 13.5833 7.82617 14.75C8.99284 15.9167 10.4095 16.5 12.0762 16.5Z" fill="#ABACAD"/>
</g>
</g>
<defs>
<clipPath id="clip0_7_1696">
<rect width="24" height="24" fill="white" transform="translate(0 0.5)"/>
</clipPath>
</defs>
</svg>
