<svg width="24" height="24" viewBox="0 0 24 24" fill="none" xmlns="http://www.w3.org/2000/svg">
<g clip-path="url(#clip0_7_1720)">
<mask id="mask0_7_1720" style="mask-type:alpha" maskUnits="userSpaceOnUse" x="0" y="0" width="25" height="24">
<rect x="0.0761719" width="24" height="24" fill="#D9D9D9"/>
</mask>
<g mask="url(#mask0_7_1720)">
<path d="M5.92617 12L5.62617 10.5C5.42617 10.4167 5.23867 10.3292 5.06367 10.2375C4.88867 10.1458 4.70951 10.0333 4.52617 9.9L3.07617 10.35L2.07617 8.65L3.22617 7.65C3.19284 7.43333 3.17617 7.21667 3.17617 7C3.17617 6.78333 3.19284 6.56667 3.22617 6.35L2.07617 5.35L3.07617 3.65L4.52617 4.1C4.70951 3.96667 4.88867 3.85417 5.06367 3.7625C5.23867 3.67083 5.42617 3.58333 5.62617 3.5L5.92617 2H7.92617L8.22617 3.5C8.42617 3.58333 8.61367 3.67083 8.78867 3.7625C8.96367 3.85417 9.14284 3.96667 9.32617 4.1L10.7762 3.65L11.7762 5.35L10.6262 6.35C10.6595 6.56667 10.6762 6.78333 10.6762 7C10.6762 7.21667 10.6595 7.43333 10.6262 7.65L11.7762 8.65L10.7762 10.35L9.32617 9.9C9.14284 10.0333 8.96367 10.1458 8.78867 10.2375C8.61367 10.3292 8.42617 10.4167 8.22617 10.5L7.92617 12H5.92617ZM6.92617 9C7.47617 9 7.94701 8.80417 8.33867 8.4125C8.73034 8.02083 8.92617 7.55 8.92617 7C8.92617 6.45 8.73034 5.97917 8.33867 5.5875C7.94701 5.19583 7.47617 5 6.92617 5C6.37617 5 5.90534 5.19583 5.51367 5.5875C5.12201 5.97917 4.92617 6.45 4.92617 7C4.92617 7.55 5.12201 8.02083 5.51367 8.4125C5.90534 8.80417 6.37617 9 6.92617 9ZM14.8762 23L14.4262 20.9C14.1428 20.8 13.8803 20.6792 13.6387 20.5375C13.397 20.3958 13.1595 20.2333 12.9262 20.05L10.9262 20.7L9.52617 18.3L11.1262 16.9C11.0928 16.6 11.0762 16.3 11.0762 16C11.0762 15.7 11.0928 15.4 11.1262 15.1L9.52617 13.7L10.9262 11.3L12.9262 11.95C13.1595 11.7667 13.397 11.6042 13.6387 11.4625C13.8803 11.3208 14.1428 11.2 14.4262 11.1L14.8762 9H17.6762L18.1262 11.1C18.4095 11.2 18.672 11.3208 18.9137 11.4625C19.1553 11.6042 19.3928 11.7667 19.6262 11.95L21.6262 11.3L23.0262 13.7L21.4262 15.1C21.4595 15.4 21.4762 15.7 21.4762 16C21.4762 16.3 21.4595 16.6 21.4262 16.9L23.0262 18.3L21.6262 20.7L19.6262 20.05C19.3928 20.2333 19.1553 20.3958 18.9137 20.5375C18.672 20.6792 18.4095 20.8 18.1262 20.9L17.6762 23H14.8762ZM16.2762 19C17.1095 19 17.8178 18.7083 18.4012 18.125C18.9845 17.5417 19.2762 16.8333 19.2762 16C19.2762 15.1667 18.9845 14.4583 18.4012 13.875C17.8178 13.2917 17.1095 13 16.2762 13C15.4428 13 14.7345 13.2917 14.1512 13.875C13.5678 14.4583 13.2762 15.1667 13.2762 16C13.2762 16.8333 13.5678 17.5417 14.1512 18.125C14.7345 18.7083 15.4428 19 16.2762 19Z" fill="#ABACAD"/>
</g>
</g>
<defs>
<clipPath id="clip0_7_1720">
<rect width="24" height="24" fill="white"/>
</clipPath>
</defs>
</svg>
