<svg width="24" height="24" viewBox="0 0 24 24" fill="none" xmlns="http://www.w3.org/2000/svg">
<mask id="mask0_157_90" style="mask-type:alpha" maskUnits="userSpaceOnUse" x="0" y="0" width="25" height="24">
<rect x="0.0761719" width="24" height="24" fill="#D9D9D9"/>
</mask>
<g mask="url(#mask0_157_90)">
<path d="M18.0762 13V11H22.0762V13H18.0762ZM19.2762 20L16.0762 17.6L17.2762 16L20.4762 18.4L19.2762 20ZM17.2762 8L16.0762 6.4L19.2762 4L20.4762 5.6L17.2762 8ZM5.07617 19V15H4.07617C3.52617 15 3.05534 14.8042 2.66367 14.4125C2.27201 14.0208 2.07617 13.55 2.07617 13V11C2.07617 10.45 2.27201 9.97917 2.66367 9.5875C3.05534 9.19583 3.52617 9 4.07617 9H8.07617L13.0762 6V18L8.07617 15H7.07617V19H5.07617ZM14.0762 15.35V8.65C14.5262 9.05 14.8887 9.5375 15.1637 10.1125C15.4387 10.6875 15.5762 11.3167 15.5762 12C15.5762 12.6833 15.4387 13.3125 15.1637 13.8875C14.8887 14.4625 14.5262 14.95 14.0762 15.35Z" fill="#ABACAD"/>
</g>
</svg>
